# xmcd
#
# Track frame offsets: 
#        150
#        11690
#        25393
#        38301
#        51795
#        64553
#        80135
#        90640
#        104802
#        115631
#        127348
#        138433
#        152935
#        165997
#        179222
#
# Disc length: 2596 seconds
#
# Revision: 0
# Processed by: cddbd v1.5.2PL0 Copyright (c) Steve Scherf et al.
# Submitted via: ExactAudioCopyFreeDBPlugin 1.0
#
DISCID=cc0a220f
DTITLE=B.B. King - Anthology
DYEAR=1900
DGENRE=Blues
TTITLE0=She's a mean woman
TTITLE1=You upset me baby
TTITLE2=Boogie woogie woman
TTITLE3=Crying won't help you
TTITLE4=I want to get married
TTITLE5=The letter
TTITLE6=Don't you want a man like me
TTITLE7=Whole lotta love
TTITLE8=Love you baby
TTITLE9=Take a swing with me
TTITLE10=B.B's blues
TTITLE11=Sweet little angel
TTITLE12=Bad Luck
TTITLE13=Woke up this morning
TTITLE14=Walkin' and cryin'
EXTD=
EXTT0=
EXTT1=
EXTT2=
EXTT3=
EXTT4=
EXTT5=
EXTT6=
EXTT7=
EXTT8=
EXTT9=
EXTT10=
EXTT11=
EXTT12=
EXTT13=
EXTT14=
PLAYORDER=
